<svg id="Capa_1" enable-background="new 0 0 512 512" height="512" viewBox="0 0 512 512" width="512" xmlns="http://www.w3.org/2000/svg"><g><path d="m351 15v449c0 8.28-6.72 15-15 15h-321c-8.28 0-15-6.72-15-15v-449c0-8.28 6.72-15 15-15h321c8.28 0 15 6.72 15 15z" fill="#8bb9ff"/><path d="m351 15v449c0 8.28-6.72 15-15 15h-160v-479h160c8.28 0 15 6.72 15 15z" fill="#6e75e2"/><path d="m287 80v80c0 8.28-6.72 15-15 15h-192c-8.28 0-15-6.72-15-15v-80c0-8.28 6.72-15 15-15h192c8.28 0 15 6.72 15 15z" fill="#f6f9f9"/><path d="m287 80v80c0 8.28-6.72 15-15 15h-96v-110h96c8.28 0 15 6.72 15 15z" fill="#e2dff4"/><path d="m199 224c0 8.28-6.72 15-15 15h-16c-8.28 0-15-6.72-15-15s6.72-15 15-15h16c8.28 0 15 6.72 15 15z" fill="#6e75e2"/><path d="m184 239h-8v-30h8c8.28 0 15 6.72 15 15s-6.72 15-15 15z" fill="#3340d8"/><path d="m199 304c0 8.28-6.72 15-15 15h-16c-8.28 0-15-6.72-15-15s6.72-15 15-15h16c8.28 0 15 6.72 15 15z" fill="#6e75e2"/><path d="m199 304c0 8.28-6.72 15-15 15h-8v-30h8c8.28 0 15 6.72 15 15z" fill="#3340d8"/><path d="m199 384c0 8.28-6.72 15-15 15h-16c-8.28 0-15-6.72-15-15s6.72-15 15-15h16c8.28 0 15 6.72 15 15z" fill="#6e75e2"/><path d="m199 384c0 8.28-6.72 15-15 15h-8v-30h8c8.28 0 15 6.72 15 15z" fill="#3340d8"/><path d="m104 239h-16c-8.284 0-15-6.716-15-15s6.716-15 15-15h16c8.284 0 15 6.716 15 15s-6.716 15-15 15z" fill="#6e75e2"/><path d="m104 319h-16c-8.284 0-15-6.716-15-15s6.716-15 15-15h16c8.284 0 15 6.716 15 15s-6.716 15-15 15z" fill="#6e75e2"/><path d="m104 399h-16c-8.284 0-15-6.716-15-15s6.716-15 15-15h16c8.284 0 15 6.716 15 15s-6.716 15-15 15z" fill="#ace233"/><path d="m264 239h-16c-8.284 0-15-6.716-15-15s6.716-15 15-15h16c8.284 0 15 6.716 15 15s-6.716 15-15 15z" fill="#3340d8"/><path d="m497 368c0 70.69-58.31 129-129 129s-128-58.31-128-129 57.31-128 128-128 129 57.31 129 128z" fill="#ffe278"/><path d="m497 368c0 70.69-58.31 129-129 129v-257c70.69 0 129 57.31 129 128z" fill="#ffb454"/><path d="m368 225c-78.85 0-143 64.15-143 143s64.15 144 143 144 144-65.15 144-144-65.15-143-144-143zm0 257c-62.31 0-113-51.69-113-114s50.69-113 113-113 114 50.69 114 113-51.69 114-114 114z" fill="#ffb454"/><path d="m512 368c0 78.85-65.15 144-144 144v-30c62.31 0 114-51.69 114-114s-51.69-113-114-113v-30c78.85 0 144 64.15 144 143z" fill="#ff7d47"/><path d="m382.99 433.09v3.13c0 8.06-6.36 14.64-14.34 14.98-.22.02-.43.02-.65.02h-.01c-8.28 0-15-6.72-15-15v-1.44c-6.91-1.21-13.23-3.8-21.2-9.02-6.93-4.53-8.88-13.83-4.34-20.76 4.53-6.93 13.83-8.88 20.76-4.34 7.79 5.09 10.13 5.09 19.76 5.09h.03c.22 0 .44-.01.65-.02 9.09-.45 12.75-7.74 13.48-12.08.68-4.01-.08-9.35-7.51-11.97-1.94-.69-3.94-1.42-5.97-2.18-.22-.08-.43-.16-.65-.24-9.66-3.63-19.95-8.08-27.66-14.12-20.6-16.17-14.38-53.08 12.65-62.9v-2.17c0-8.28 6.72-15 15-15h.01c.22 0 .43 0 .65.02 7.98.34 14.34 6.92 14.34 14.98v.84c7.39 2.08 13.34 5.85 17.43 10.02 5.81 5.89 5.73 15.39-.18 21.21-5.9 5.81-15.39 5.72-21.2-.17-.68-.67-3.86-3.32-10.39-2.7-.21.02-.43.05-.65.08h-.03c-1.33.17-2.79.47-4.39.96-3.99 1.2-5.07 5.35-5.3 6.59-.49 2.58.21 4.33.58 4.62 2.36 1.85 5.61 3.65 9.14 5.31.22.11.43.21.65.31 5.5 2.52 11.57 4.7 15.97 6.26 39.53 13.98 34.71 66.55-1.63 79.69z" fill="#ffb454"/><g fill="#ff7d47"><path d="m382.99 433.09v3.13c0 8.06-6.36 14.64-14.34 14.98-.22.02-.43.02-.65.02v-45.47c.22 0 .44-.01.65-.02 9.09-.45 12.75-7.74 13.48-12.08.68-4.01-.08-9.35-7.51-11.97-1.94-.69-3.94-1.42-5.97-2.18-.22-.08-.43-.16-.65-.24v-32.43c.22.11.43.21.65.31 5.5 2.52 11.57 4.7 15.97 6.26 39.53 13.98 34.71 66.55-1.63 79.69z"/><path d="m368.65 329.27c-.21.02-.43.05-.65.08v-44.28c.22 0 .43 0 .65.02 7.98.34 14.34 6.92 14.34 14.98v.84c7.39 2.08 13.34 5.85 17.43 10.02 5.81 5.89 5.73 15.39-.18 21.21-5.9 5.81-15.39 5.72-21.2-.17-.68-.67-3.86-3.32-10.39-2.7z"/></g></g></svg>